<svg width="187" height="34" viewBox="0 0 187 34" fill="none" xmlns="http://www.w3.org/2000/svg">
<path d="M18.2041 22.1717C18.0478 22.3285 17.8354 22.4167 17.614 22.4167H15.0094C14.2669 22.4167 13.8951 21.519 14.4201 20.9941C14.5764 20.8378 14.7884 20.75 15.0094 20.75H17.614C18.3558 20.75 18.7279 21.6464 18.2041 22.1717Z" fill="#363636"/>
<path d="M21.3738 14.0404L19.6518 15.7624C18.5493 16.8649 19.3301 18.75 20.8893 18.75C21.3543 18.75 21.8003 18.5649 22.1286 18.2356L23.8462 16.5129C24.6907 15.6684 25.1651 14.523 25.1651 13.3287C25.1651 12.1345 24.6907 10.9891 23.8462 10.1446C23.0017 9.30011 21.8563 8.82568 20.6621 8.82568C19.4678 8.82568 18.3224 9.30011 17.4779 10.1446L12.0973 15.5252C11.7682 15.8543 11.5833 16.3007 11.5833 16.7661C11.5833 18.3294 13.4735 19.1123 14.5789 18.0069L19.9595 12.6262C20.3501 12.2357 20.9832 12.2357 21.3738 12.6262C21.7643 13.0167 21.7643 13.6499 21.3738 14.0404Z" fill="#363636"/>
<path fill-rule="evenodd" clip-rule="evenodd" d="M34 4C34 1.79086 32.2091 0 30 0H4C1.79086 0 0 1.79086 0 4V30C0 32.2091 1.79086 34 4 34H30C32.2091 34 34 32.2091 34 30V4ZM20.6621 6.82568C18.9373 6.82568 17.2833 7.51083 16.0637 8.73039L9.87621 14.9179C9.68867 15.1054 9.58331 15.3598 9.58331 15.625V21.3456C9.58331 22.4065 9.16189 23.4239 8.41174 24.174L7.12621 25.4596C6.73568 25.8501 6.73568 26.4832 7.12621 26.8738C7.51673 27.2643 8.1499 27.2643 8.54042 26.8738L9.82595 25.5882C10.5761 24.8381 11.5935 24.4167 12.6544 24.4167H18.375C18.6407 24.4167 18.8955 24.3109 19.0831 24.1227L22.6568 20.5385C22.7222 20.4874 22.7811 20.4283 22.832 20.3627L25.2604 17.9271C26.48 16.7075 27.1651 15.0535 27.1651 13.3287C27.1651 11.604 26.48 9.94994 25.2604 8.73039C24.0409 7.51083 22.3868 6.82568 20.6621 6.82568Z" fill="#363636"/>
<path d="M38.6 24V9.8H48.06V11.78H40.84V16.02H46.88V17.88H40.84V24H38.6Z" fill="#363636"/>
<path d="M54.017 24.2C53.2037 24.2 52.4637 24.06 51.797 23.78C51.1437 23.4867 50.577 23.0933 50.097 22.6C49.617 22.0933 49.2437 21.52 48.977 20.88C48.7237 20.2267 48.597 19.5333 48.597 18.8C48.597 17.8133 48.8237 16.9133 49.277 16.1C49.7304 15.2733 50.3637 14.6133 51.177 14.12C51.9904 13.6133 52.9437 13.36 54.037 13.36C55.1304 13.36 56.0704 13.6133 56.857 14.12C57.657 14.6133 58.277 15.2667 58.717 16.08C59.157 16.8933 59.377 17.7667 59.377 18.7C59.377 18.86 59.3704 19.0133 59.357 19.16C59.3437 19.2933 59.3304 19.4067 59.317 19.5H50.937C50.977 20.1133 51.1437 20.6533 51.437 21.12C51.7437 21.5733 52.1304 21.9333 52.597 22.2C53.0637 22.4533 53.5637 22.58 54.097 22.58C54.6837 22.58 55.237 22.4333 55.757 22.14C56.2904 21.8467 56.6504 21.46 56.837 20.98L58.717 21.52C58.4904 22.0267 58.1437 22.4867 57.677 22.9C57.2237 23.3 56.6837 23.62 56.057 23.86C55.4304 24.0867 54.7504 24.2 54.017 24.2ZM50.877 18.04H57.197C57.157 17.44 56.9837 16.9133 56.677 16.46C56.3837 15.9933 56.0037 15.6333 55.537 15.38C55.0837 15.1133 54.577 14.98 54.017 14.98C53.4704 14.98 52.9637 15.1133 52.497 15.38C52.0437 15.6333 51.6704 15.9933 51.377 16.46C51.0837 16.9133 50.917 17.44 50.877 18.04Z" fill="#363636"/>
<path d="M60.4116 20.94C60.4116 20.2733 60.5982 19.6933 60.9716 19.2C61.3582 18.6933 61.8849 18.3067 62.5516 18.04C63.2182 17.76 63.9916 17.62 64.8716 17.62C65.3382 17.62 65.8116 17.6533 66.2916 17.72C66.7849 17.7867 67.2182 17.8933 67.5916 18.04V17.38C67.5916 16.6467 67.3716 16.0733 66.9316 15.66C66.4916 15.2467 65.8582 15.04 65.0316 15.04C64.4449 15.04 63.8916 15.1467 63.3716 15.36C62.8516 15.56 62.2982 15.8467 61.7116 16.22L60.9716 14.74C61.6649 14.2733 62.3582 13.9267 63.0516 13.7C63.7582 13.4733 64.4982 13.36 65.2716 13.36C66.6716 13.36 67.7716 13.7333 68.5716 14.48C69.3849 15.2133 69.7916 16.26 69.7916 17.62V21.52C69.7916 21.7733 69.8316 21.9533 69.9116 22.06C70.0049 22.1667 70.1582 22.2267 70.3716 22.24V24C70.1716 24.04 69.9916 24.0667 69.8316 24.08C69.6716 24.0933 69.5382 24.1 69.4316 24.1C68.9649 24.1 68.6116 23.9867 68.3716 23.76C68.1316 23.5333 67.9916 23.2667 67.9516 22.96L67.8916 22.36C67.4382 22.9467 66.8582 23.4 66.1516 23.72C65.4449 24.04 64.7316 24.2 64.0116 24.2C63.3182 24.2 62.6982 24.06 62.1516 23.78C61.6049 23.4867 61.1782 23.0933 60.8716 22.6C60.5649 22.1067 60.4116 21.5533 60.4116 20.94ZM67.0716 21.58C67.2316 21.4067 67.3582 21.2333 67.4516 21.06C67.5449 20.8867 67.5916 20.7333 67.5916 20.6V19.4C67.2182 19.2533 66.8249 19.1467 66.4116 19.08C65.9982 19 65.5916 18.96 65.1916 18.96C64.3916 18.96 63.7382 19.12 63.2316 19.44C62.7382 19.76 62.4916 20.2 62.4916 20.76C62.4916 21.0667 62.5716 21.36 62.7316 21.64C62.9049 21.92 63.1449 22.1467 63.4516 22.32C63.7716 22.4933 64.1649 22.58 64.6316 22.58C65.1116 22.58 65.5716 22.4867 66.0116 22.3C66.4516 22.1133 66.8049 21.8733 67.0716 21.58Z" fill="#363636"/>
<path d="M78.2025 23.46C78.0158 23.5533 77.7825 23.6533 77.5025 23.76C77.2225 23.8667 76.9025 23.96 76.5425 24.04C76.1958 24.12 75.8358 24.16 75.4625 24.16C75.0092 24.16 74.5892 24.08 74.2025 23.92C73.8158 23.76 73.5025 23.5067 73.2625 23.16C73.0358 22.8 72.9225 22.34 72.9225 21.78V15.24H71.5425V13.54H72.9225V10.1H75.1225V13.54H77.4025V15.24H75.1225V21.08C75.1492 21.44 75.2625 21.7067 75.4625 21.88C75.6758 22.0533 75.9358 22.14 76.2425 22.14C76.5492 22.14 76.8425 22.0867 77.1225 21.98C77.4025 21.8733 77.6092 21.7867 77.7425 21.72L78.2025 23.46Z" fill="#363636"/>
<path d="M89.1062 24H86.9062V18.14C86.9062 17.1933 86.7329 16.4867 86.3863 16.02C86.0396 15.5533 85.5529 15.32 84.9262 15.32C84.5396 15.32 84.1396 15.4267 83.7262 15.64C83.3129 15.8533 82.9463 16.1467 82.6263 16.52C82.3063 16.88 82.0729 17.3 81.9262 17.78V24H79.7262V9.4H81.9262V15.64C82.3262 14.9333 82.8729 14.38 83.5663 13.98C84.2596 13.5667 85.0063 13.36 85.8063 13.36C86.4596 13.36 86.9996 13.4733 87.4263 13.7C87.8529 13.9267 88.1863 14.24 88.4263 14.64C88.6796 15.0267 88.8529 15.48 88.9463 16C89.0529 16.5067 89.1062 17.0467 89.1062 17.62V24Z" fill="#363636"/>
<path d="M96.3998 24.2C95.5865 24.2 94.8465 24.06 94.1798 23.78C93.5265 23.4867 92.9598 23.0933 92.4798 22.6C91.9998 22.0933 91.6265 21.52 91.3598 20.88C91.1065 20.2267 90.9798 19.5333 90.9798 18.8C90.9798 17.8133 91.2065 16.9133 91.6598 16.1C92.1132 15.2733 92.7465 14.6133 93.5598 14.12C94.3732 13.6133 95.3265 13.36 96.4198 13.36C97.5132 13.36 98.4532 13.6133 99.2398 14.12C100.04 14.6133 100.66 15.2667 101.1 16.08C101.54 16.8933 101.76 17.7667 101.76 18.7C101.76 18.86 101.753 19.0133 101.74 19.16C101.727 19.2933 101.713 19.4067 101.7 19.5H93.3198C93.3598 20.1133 93.5265 20.6533 93.8198 21.12C94.1265 21.5733 94.5132 21.9333 94.9798 22.2C95.4465 22.4533 95.9465 22.58 96.4798 22.58C97.0665 22.58 97.6198 22.4333 98.1398 22.14C98.6732 21.8467 99.0332 21.46 99.2198 20.98L101.1 21.52C100.873 22.0267 100.527 22.4867 100.06 22.9C99.6065 23.3 99.0665 23.62 98.4398 23.86C97.8132 24.0867 97.1332 24.2 96.3998 24.2ZM93.2598 18.04H99.5798C99.5398 17.44 99.3665 16.9133 99.0598 16.46C98.7665 15.9933 98.3865 15.6333 97.9198 15.38C97.4665 15.1133 96.9598 14.98 96.3998 14.98C95.8532 14.98 95.3465 15.1133 94.8798 15.38C94.4265 15.6333 94.0532 15.9933 93.7598 16.46C93.4665 16.9133 93.2998 17.44 93.2598 18.04Z" fill="#363636"/>
<path d="M109.434 15.44C108.581 15.4533 107.821 15.6467 107.154 16.02C106.501 16.3933 106.034 16.92 105.754 17.6V24H103.554V13.54H105.594V15.88C105.954 15.16 106.428 14.5867 107.014 14.16C107.601 13.72 108.221 13.48 108.874 13.44C109.008 13.44 109.114 13.44 109.194 13.44C109.288 13.44 109.368 13.4467 109.434 13.46V15.44Z" fill="#363636"/>
<path d="M115.807 24V9.8H118.047V22.02H125.667V24H115.807Z" fill="#363636"/>
<path d="M127.207 24V13.54H129.407V24H127.207ZM127.207 11.82V9.4H129.407V11.82H127.207Z" fill="#363636"/>
<path d="M136.19 24.1C135.484 24.1 134.837 23.96 134.25 23.68C133.664 23.3867 133.157 22.9933 132.73 22.5C132.317 22.0067 131.99 21.44 131.75 20.8C131.524 20.16 131.41 19.4867 131.41 18.78C131.41 18.0333 131.53 17.3333 131.77 16.68C132.01 16.0267 132.344 15.4533 132.77 14.96C133.21 14.4533 133.724 14.06 134.31 13.78C134.897 13.5 135.55 13.36 136.27 13.36C137.11 13.36 137.844 13.56 138.47 13.96C139.11 14.36 139.637 14.88 140.05 15.52V13.54H141.99V23.7C141.99 24.7133 141.744 25.5733 141.25 26.28C140.77 26.9867 140.11 27.5267 139.27 27.9C138.43 28.2733 137.484 28.46 136.43 28.46C135.27 28.46 134.31 28.26 133.55 27.86C132.79 27.46 132.144 26.9133 131.61 26.22L132.85 25.06C133.25 25.62 133.764 26.0467 134.39 26.34C135.03 26.6333 135.71 26.78 136.43 26.78C137.03 26.78 137.584 26.6667 138.09 26.44C138.61 26.2267 139.024 25.8867 139.33 25.42C139.637 24.9667 139.79 24.3933 139.79 23.7V22.1C139.417 22.7267 138.904 23.22 138.25 23.58C137.597 23.9267 136.91 24.1 136.19 24.1ZM136.91 22.32C137.244 22.32 137.564 22.2667 137.87 22.16C138.177 22.04 138.457 21.8867 138.71 21.7C138.977 21.5 139.204 21.28 139.39 21.04C139.577 20.7867 139.71 20.52 139.79 20.24V17.5C139.617 17.0467 139.37 16.6533 139.05 16.32C138.73 15.9733 138.37 15.7067 137.97 15.52C137.57 15.3333 137.164 15.24 136.75 15.24C136.27 15.24 135.837 15.3467 135.45 15.56C135.077 15.76 134.757 16.0333 134.49 16.38C134.224 16.7133 134.017 17.0933 133.87 17.52C133.724 17.9467 133.65 18.3867 133.65 18.84C133.65 19.32 133.73 19.7667 133.89 20.18C134.064 20.5933 134.297 20.9667 134.59 21.3C134.884 21.62 135.23 21.8733 135.63 22.06C136.03 22.2333 136.457 22.32 136.91 22.32Z" fill="#363636"/>
<path d="M154.009 24H151.809V18.14C151.809 17.1933 151.635 16.4867 151.289 16.02C150.942 15.5533 150.455 15.32 149.829 15.32C149.442 15.32 149.042 15.4267 148.629 15.64C148.215 15.8533 147.849 16.1467 147.529 16.52C147.209 16.88 146.975 17.3 146.829 17.78V24H144.629V9.4H146.829V15.64C147.229 14.9333 147.775 14.38 148.469 13.98C149.162 13.5667 149.909 13.36 150.709 13.36C151.362 13.36 151.902 13.4733 152.329 13.7C152.755 13.9267 153.089 14.24 153.329 14.64C153.582 15.0267 153.755 15.48 153.849 16C153.955 16.5067 154.009 17.0467 154.009 17.62V24Z" fill="#363636"/>
<path d="M162.304 23.46C162.117 23.5533 161.884 23.6533 161.604 23.76C161.324 23.8667 161.004 23.96 160.644 24.04C160.297 24.12 159.937 24.16 159.564 24.16C159.111 24.16 158.691 24.08 158.304 23.92C157.917 23.76 157.604 23.5067 157.364 23.16C157.137 22.8 157.024 22.34 157.024 21.78V15.24H155.644V13.54H157.024V10.1H159.224V13.54H161.504V15.24H159.224V21.08C159.251 21.44 159.364 21.7067 159.564 21.88C159.777 22.0533 160.037 22.14 160.344 22.14C160.651 22.14 160.944 22.0867 161.224 21.98C161.504 21.8733 161.711 21.7867 161.844 21.72L162.304 23.46Z" fill="#363636"/>
<path d="M174.969 24.1C173.836 24.1 172.876 23.9067 172.089 23.52C171.316 23.1333 170.689 22.6067 170.209 21.94C169.743 21.2733 169.396 20.5133 169.169 19.66C168.956 18.8067 168.849 17.92 168.849 17V9.8H171.089V17C171.089 17.6533 171.156 18.2867 171.289 18.9C171.423 19.5 171.636 20.04 171.929 20.52C172.223 21 172.616 21.38 173.109 21.66C173.616 21.94 174.236 22.08 174.969 22.08C175.716 22.08 176.336 21.94 176.829 21.66C177.336 21.3667 177.729 20.98 178.009 20.5C178.303 20.0067 178.516 19.46 178.649 18.86C178.783 18.26 178.849 17.64 178.849 17V9.8H181.109V17C181.109 17.9733 180.989 18.8933 180.749 19.76C180.523 20.6133 180.163 21.3667 179.669 22.02C179.189 22.66 178.563 23.1667 177.789 23.54C177.016 23.9133 176.076 24.1 174.969 24.1Z" fill="#363636"/>
<path d="M184.088 24V9.8H186.328V24H184.088Z" fill="#363636"/>
</svg>
