<svg width="250" height="34" viewBox="0 0 250 34" fill="none" xmlns="http://www.w3.org/2000/svg">
<path fill-rule="evenodd" clip-rule="evenodd" d="M34 4C34 1.79086 32.2091 0 30 0H4C1.79086 0 0 1.79086 0 4V30C0 32.2091 1.79086 34 4 34H30C32.2091 34 34 32.2091 34 30V4ZM20.6621 7.82568C18.9373 7.82568 17.2833 8.51083 16.0637 9.73039L9.87621 15.9179C9.68867 16.1054 9.58331 16.3598 9.58331 16.625V22.3456C9.58331 23.4065 9.16189 24.4239 8.41174 25.174L7.12621 26.4596C6.73568 26.8501 6.73568 27.4832 7.12621 27.8738C7.51673 28.2643 8.1499 28.2643 8.54042 27.8738L9.82595 26.5882C10.5761 25.8381 11.5935 25.4167 12.6544 25.4167H18.375C18.6407 25.4167 18.8955 25.3109 19.0831 25.1227L22.6568 21.5385C22.7222 21.4874 22.7811 21.4283 22.832 21.3627L25.2604 18.9271C26.48 17.7075 27.1651 16.0535 27.1651 14.3287C27.1651 12.604 26.48 10.9499 25.2604 9.73039C24.0409 8.51083 22.3868 7.82568 20.6621 7.82568ZM18.2041 23.1717C18.0478 23.3285 17.8354 23.4167 17.614 23.4167H15.0094C14.2669 23.4167 13.8951 22.519 14.4201 21.9941V21.9941C14.5764 21.8378 14.7884 21.75 15.0094 21.75H17.614C18.3558 21.75 18.7279 22.6464 18.2041 23.1717V23.1717ZM21.3738 15.0404L19.6518 16.7624C18.5493 17.8649 19.3301 19.75 20.8893 19.75V19.75C21.3543 19.75 21.8003 19.5649 22.1286 19.2356L23.8452 17.5139L23.8462 17.5129C24.6907 16.6684 25.1651 15.523 25.1651 14.3287C25.1651 13.1345 24.6907 11.9891 23.8462 11.1446C23.0017 10.3001 21.8563 9.82568 20.6621 9.82568C19.4678 9.82568 18.3224 10.3001 17.4779 11.1446L12.0973 16.5252C11.7682 16.8543 11.5833 17.3007 11.5833 17.7661V17.7661C11.5833 19.3294 13.4735 20.1123 14.5789 19.0069L19.9595 13.6262C20.3501 13.2357 20.9832 13.2357 21.3738 13.6262C21.7643 14.0167 21.7643 14.6499 21.3738 15.0404Z" fill="#00D1B2"/>
<path d="M44 26.9161V7.54564H57.1915V10.2466H47.1236V16.0304H55.5461V18.5677H47.1236V26.9161H44Z" fill="#363636"/>
<path d="M65.4983 27.1889C64.3642 27.1889 63.3323 26.9979 62.4026 26.6159C61.4916 26.2158 60.7014 25.6793 60.0321 25.0063C59.3627 24.3151 58.8421 23.5331 58.4703 22.66C58.117 21.7688 57.9404 20.823 57.9404 19.8227C57.9404 18.4767 58.2565 17.249 58.8886 16.1396C59.5208 15.0119 60.4039 14.1116 61.5381 13.4386C62.6722 12.7475 64.0016 12.4019 65.5262 12.4019C67.0508 12.4019 68.3616 12.7475 69.4586 13.4386C70.5741 14.1116 71.4387 15.0028 72.0522 16.1123C72.6658 17.2218 72.9726 18.4131 72.9726 19.6863C72.9726 19.9045 72.9633 20.1137 72.9447 20.3137C72.9261 20.4956 72.9075 20.6502 72.8889 20.7775H61.2034C61.2592 21.6142 61.4916 22.3508 61.9006 22.9874C62.3283 23.6058 62.8674 24.0969 63.5182 24.4606C64.1689 24.8062 64.8662 24.979 65.6099 24.979C66.4279 24.979 67.1995 24.7789 67.9247 24.3788C68.6684 23.9787 69.1704 23.4512 69.4307 22.7964L72.0522 23.5331C71.7362 24.2242 71.2527 24.8517 70.602 25.4155C69.9699 25.9612 69.2168 26.3977 68.343 26.7251C67.4691 27.0343 66.5209 27.1889 65.4983 27.1889ZM61.1197 18.7859H69.9327C69.8769 17.9675 69.6352 17.249 69.2076 16.6306C68.7985 15.9941 68.2686 15.503 67.6179 15.1574C66.9857 14.7936 66.2792 14.6118 65.4983 14.6118C64.736 14.6118 64.0295 14.7936 63.3787 15.1574C62.7466 15.503 62.226 15.9941 61.817 16.6306C61.4079 17.249 61.1755 17.9675 61.1197 18.7859Z" fill="#363636"/>
<path d="M74.4152 22.7419C74.4152 21.8325 74.6755 21.0413 75.1961 20.3683C75.7353 19.6772 76.4697 19.1497 77.3993 18.7859C78.3289 18.404 79.4073 18.213 80.6344 18.213C81.2852 18.213 81.9452 18.2585 82.6146 18.3494C83.3025 18.4404 83.9067 18.5859 84.4273 18.7859V17.8856C84.4273 16.8853 84.1206 16.1032 83.507 15.5393C82.8934 14.9755 82.0103 14.6936 80.8575 14.6936C80.0395 14.6936 79.2679 14.8391 78.5428 15.1301C77.8176 15.4029 77.046 15.794 76.228 16.3033L75.1961 14.2844C76.1629 13.6478 77.1297 13.1749 78.0965 12.8657C79.0819 12.5565 80.1138 12.4019 81.1922 12.4019C83.1444 12.4019 84.6783 12.9112 85.7939 13.9297C86.9281 14.93 87.4951 16.3578 87.4951 18.213V23.5331C87.4951 23.8786 87.5509 24.1242 87.6625 24.2697C87.7926 24.4152 88.0064 24.497 88.3039 24.5152V26.9161C88.025 26.9706 87.774 27.007 87.5509 27.0252C87.3278 27.0434 87.1419 27.0525 86.9931 27.0525C86.3424 27.0525 85.8497 26.8979 85.515 26.5887C85.1803 26.2795 84.9851 25.9157 84.9293 25.4974L84.8457 24.6789C84.2135 25.4792 83.4047 26.0976 82.4193 26.5341C81.4339 26.9706 80.4392 27.1889 79.4352 27.1889C78.4684 27.1889 77.6038 26.9979 76.8415 26.6159C76.0792 26.2158 75.4843 25.6793 75.0566 25.0063C74.629 24.3333 74.4152 23.5785 74.4152 22.7419ZM83.7022 23.6149C83.9253 23.3785 84.102 23.142 84.2321 22.9056C84.3623 22.6691 84.4273 22.46 84.4273 22.2781V20.6411C83.9067 20.4411 83.3583 20.2956 82.7819 20.2046C82.2055 20.0955 81.6384 20.0409 81.0807 20.0409C79.9651 20.0409 79.0541 20.2592 78.3475 20.6957C77.6596 21.1322 77.3156 21.7324 77.3156 22.4963C77.3156 22.9147 77.4272 23.3148 77.6503 23.6967C77.892 24.0787 78.2267 24.3879 78.6543 24.6243C79.1005 24.8608 79.649 24.979 80.2998 24.979C80.9691 24.979 81.6106 24.8517 82.2241 24.5971C82.8377 24.3424 83.3304 24.015 83.7022 23.6149Z" fill="#363636"/>
<path d="M99.2238 26.1794C98.9635 26.3067 98.6381 26.4432 98.2477 26.5887C97.8572 26.7342 97.411 26.8615 96.909 26.9706C96.4256 27.0797 95.9236 27.1343 95.403 27.1343C94.7708 27.1343 94.1852 27.0252 93.646 26.8069C93.1068 26.5887 92.6699 26.2431 92.3352 25.7702C92.0191 25.2791 91.8611 24.6516 91.8611 23.8877V14.9664H89.9367V12.6474H91.8611V7.95488H94.9289V12.6474H98.1082V14.9664H94.9289V22.9328C94.9661 23.4239 95.1241 23.7877 95.403 24.0241C95.7005 24.2606 96.063 24.3788 96.4907 24.3788C96.9183 24.3788 97.3273 24.306 97.7178 24.1605C98.1082 24.015 98.3964 23.8968 98.5823 23.8059L99.2238 26.1794Z" fill="#363636"/>
<path d="M114.429 26.9161H111.361V18.9223C111.361 17.631 111.119 16.667 110.636 16.0304C110.152 15.3938 109.474 15.0756 108.6 15.0756C108.061 15.0756 107.503 15.2211 106.926 15.5121C106.35 15.8031 105.839 16.2032 105.392 16.7125C104.946 17.2036 104.621 17.7765 104.416 18.4313V26.9161H101.349V7H104.416V15.5121C104.974 14.5481 105.736 13.7933 106.703 13.2476C107.67 12.6838 108.711 12.4019 109.827 12.4019C110.738 12.4019 111.491 12.5565 112.086 12.8657C112.681 13.1749 113.146 13.6023 113.48 14.148C113.834 14.6754 114.075 15.2938 114.205 16.0031C114.354 16.6943 114.429 17.4309 114.429 18.213V26.9161Z" fill="#363636"/>
<path d="M124.599 27.1889C123.465 27.1889 122.433 26.9979 121.503 26.6159C120.592 26.2158 119.802 25.6793 119.133 25.0063C118.464 24.3151 117.943 23.5331 117.571 22.66C117.218 21.7688 117.041 20.823 117.041 19.8227C117.041 18.4767 117.357 17.249 117.989 16.1396C118.622 15.0119 119.505 14.1116 120.639 13.4386C121.773 12.7475 123.102 12.4019 124.627 12.4019C126.152 12.4019 127.462 12.7475 128.559 13.4386C129.675 14.1116 130.539 15.0028 131.153 16.1123C131.767 17.2218 132.073 18.4131 132.073 19.6863C132.073 19.9045 132.064 20.1137 132.045 20.3137C132.027 20.4956 132.008 20.6502 131.99 20.7775H120.304C120.36 21.6142 120.592 22.3508 121.001 22.9874C121.429 23.6058 121.968 24.0969 122.619 24.4606C123.27 24.8062 123.967 24.979 124.711 24.979C125.529 24.979 126.3 24.7789 127.025 24.3788C127.769 23.9787 128.271 23.4512 128.531 22.7964L131.153 23.5331C130.837 24.2242 130.354 24.8517 129.703 25.4155C129.071 25.9612 128.318 26.3977 127.444 26.7251C126.57 27.0343 125.622 27.1889 124.599 27.1889ZM120.221 18.7859H129.033C128.978 17.9675 128.736 17.249 128.308 16.6306C127.899 15.9941 127.369 15.503 126.719 15.1574C126.087 14.7936 125.38 14.6118 124.599 14.6118C123.837 14.6118 123.13 14.7936 122.48 15.1574C121.847 15.503 121.327 15.9941 120.918 16.6306C120.509 17.249 120.276 17.9675 120.221 18.7859Z" fill="#363636"/>
<path d="M142.775 15.2392C141.585 15.2574 140.525 15.5212 139.596 16.0304C138.685 16.5397 138.034 17.2581 137.644 18.1857V26.9161H134.576V12.6474H137.42V15.8395C137.922 14.8573 138.582 14.0752 139.401 13.4932C140.219 12.893 141.083 12.5656 141.994 12.511C142.18 12.511 142.329 12.511 142.44 12.511C142.571 12.511 142.682 12.5201 142.775 12.5383V15.2392Z" fill="#363636"/>
<path d="M151.661 26.9161V7.54564H154.785V24.2151H165.411V26.9161H151.661Z" fill="#363636"/>
<path d="M167.558 26.9161V12.6474H170.626V26.9161H167.558ZM167.558 10.3012V7H170.626V10.3012H167.558Z" fill="#363636"/>
<path d="M180.085 27.0525C179.1 27.0525 178.198 26.8615 177.38 26.4795C176.562 26.0794 175.855 25.5428 175.26 24.8699C174.684 24.1969 174.229 23.4239 173.894 22.5509C173.578 21.6779 173.42 20.7594 173.42 19.7954C173.42 18.7768 173.587 17.822 173.922 16.9307C174.256 16.0395 174.721 15.2574 175.316 14.5845C175.93 13.8933 176.646 13.3568 177.464 12.9748C178.282 12.5929 179.193 12.4019 180.197 12.4019C181.368 12.4019 182.391 12.6747 183.265 13.2204C184.157 13.766 184.891 14.4753 185.468 15.3484V12.6474H188.173V26.5068C188.173 27.8891 187.829 29.0623 187.141 30.0262C186.472 30.9902 185.551 31.7268 184.38 32.2361C183.209 32.7454 181.889 33 180.42 33C178.802 33 177.464 32.7272 176.404 32.1815C175.344 31.6359 174.442 30.8902 173.699 29.9444L175.428 28.362C175.986 29.1259 176.701 29.7079 177.575 30.1081C178.468 30.5082 179.416 30.7083 180.42 30.7083C181.257 30.7083 182.028 30.5537 182.735 30.2445C183.46 29.9535 184.036 29.4897 184.464 28.8531C184.891 28.2347 185.105 27.4526 185.105 26.5068V24.3242C184.585 25.1791 183.869 25.852 182.958 26.3431C182.047 26.816 181.089 27.0525 180.085 27.0525ZM181.089 24.6243C181.554 24.6243 182 24.5516 182.428 24.4061C182.856 24.2424 183.246 24.0332 183.599 23.7786C183.971 23.5058 184.287 23.2057 184.547 22.8783C184.808 22.5327 184.994 22.1689 185.105 21.787V18.0493C184.864 17.4309 184.52 16.8944 184.073 16.4397C183.627 15.9668 183.125 15.603 182.567 15.3484C182.01 15.0937 181.442 14.9664 180.866 14.9664C180.197 14.9664 179.593 15.1119 179.053 15.4029C178.533 15.6758 178.087 16.0486 177.715 16.5215C177.343 16.9762 177.055 17.4946 176.85 18.0766C176.646 18.6586 176.543 19.2588 176.543 19.8772C176.543 20.532 176.655 21.1413 176.878 21.7051C177.12 22.269 177.445 22.7782 177.854 23.2329C178.263 23.6695 178.747 24.015 179.304 24.2697C179.862 24.5061 180.457 24.6243 181.089 24.6243Z" fill="#363636"/>
<path d="M204.932 26.9161H201.864V18.9223C201.864 17.631 201.622 16.667 201.139 16.0304C200.655 15.3938 199.977 15.0756 199.103 15.0756C198.564 15.0756 198.006 15.2211 197.43 15.5121C196.853 15.8031 196.342 16.2032 195.896 16.7125C195.449 17.2036 195.124 17.7765 194.92 18.4313V26.9161H191.852V7H194.92V15.5121C195.477 14.5481 196.24 13.7933 197.206 13.2476C198.173 12.6838 199.214 12.4019 200.33 12.4019C201.241 12.4019 201.994 12.5565 202.589 12.8657C203.184 13.1749 203.649 13.6023 203.984 14.148C204.337 14.6754 204.578 15.2938 204.709 16.0031C204.857 16.6943 204.932 17.4309 204.932 18.213V26.9161Z" fill="#363636"/>
<path d="M216.499 26.1794C216.239 26.3067 215.914 26.4432 215.523 26.5887C215.133 26.7342 214.687 26.8615 214.185 26.9706C213.701 27.0797 213.199 27.1343 212.679 27.1343C212.046 27.1343 211.461 27.0252 210.922 26.8069C210.382 26.5887 209.945 26.2431 209.611 25.7702C209.295 25.2791 209.137 24.6516 209.137 23.8877V14.9664H207.212V12.6474H209.137V7.95488H212.204V12.6474H215.384V14.9664H212.204V22.9328C212.242 23.4239 212.4 23.7877 212.679 24.0241C212.976 24.2606 213.339 24.3788 213.766 24.3788C214.194 24.3788 214.603 24.306 214.993 24.1605C215.384 24.015 215.672 23.8968 215.858 23.8059L216.499 26.1794Z" fill="#363636"/>
<path d="M234.16 27.0525C232.58 27.0525 231.241 26.7887 230.144 26.2613C229.066 25.7338 228.192 25.0154 227.523 24.106C226.872 23.1966 226.389 22.1598 226.072 20.9958C225.775 19.8318 225.626 18.6222 225.626 17.3673V7.54564H228.75V17.3673C228.75 18.2585 228.843 19.1224 229.029 19.9591C229.215 20.7775 229.512 21.5142 229.921 22.1689C230.33 22.8237 230.879 23.3421 231.567 23.724C232.273 24.106 233.138 24.297 234.16 24.297C235.202 24.297 236.066 24.106 236.754 23.724C237.461 23.3239 238.009 22.7964 238.399 22.1417C238.809 21.4687 239.106 20.723 239.292 19.9045C239.478 19.086 239.571 18.2403 239.571 17.3673V7.54564H242.722V17.3673C242.722 18.695 242.555 19.95 242.22 21.1322C241.904 22.2963 241.402 23.3239 240.714 24.2151C240.045 25.0881 239.171 25.7793 238.093 26.2886C237.014 26.7978 235.704 27.0525 234.16 27.0525Z" fill="#363636"/>
<path d="M246.876 26.9161V7.54564H250V26.9161H246.876Z" fill="#363636"/>
</svg>
